<mxfile host="app.diagrams.net" modified="2024-03-17T01:41:29.683Z" agent="Mozilla/5.0 (Windows NT 10.0; Win64; x64) AppleWebKit/537.36 (KHTML, like Gecko) Chrome/122.0.0.0 Safari/537.36" etag="W-BXSK52oC_79zcW5jDq" version="24.0.3" type="github">
  <diagram name="第 1 页" id="JRANshN7aokAH__0-TRH">
    <mxGraphModel dx="794" dy="464" grid="0" gridSize="10" guides="1" tooltips="1" connect="1" arrows="1" fold="1" page="1" pageScale="1" pageWidth="827" pageHeight="1169" math="0" shadow="0">
      <root>
        <mxCell id="0" />
        <mxCell id="1" parent="0" />
        <mxCell id="wQs4QJUI-x7t0GBL8plU-1" value="struct file *" style="rounded=1;whiteSpace=wrap;html=1;strokeWidth=1;fillWeight=4;hachureGap=8;hachureAngle=45;fillColor=#d5e8d4;strokeColor=#82b366;shadow=0;textShadow=0;sketch=1;curveFitting=1;jiggle=2;glass=0;fillStyle=solid;" vertex="1" parent="1">
          <mxGeometry x="103" y="143" width="84" height="28" as="geometry" />
        </mxCell>
        <mxCell id="wQs4QJUI-x7t0GBL8plU-2" value="0" style="rounded=1;whiteSpace=wrap;html=1;strokeWidth=1;fillWeight=4;hachureGap=8;hachureAngle=45;sketch=1;" vertex="1" parent="1">
          <mxGeometry x="103" y="170" width="84" height="29" as="geometry" />
        </mxCell>
        <mxCell id="wQs4QJUI-x7t0GBL8plU-3" value="1" style="rounded=1;whiteSpace=wrap;html=1;strokeWidth=1;fillWeight=4;hachureGap=8;hachureAngle=45;sketch=1;" vertex="1" parent="1">
          <mxGeometry x="103" y="199" width="84" height="29" as="geometry" />
        </mxCell>
        <mxCell id="wQs4QJUI-x7t0GBL8plU-4" value="2" style="rounded=1;whiteSpace=wrap;html=1;strokeWidth=1;fillWeight=4;hachureGap=8;hachureAngle=45;sketch=1;" vertex="1" parent="1">
          <mxGeometry x="103" y="228" width="84" height="29" as="geometry" />
        </mxCell>
        <mxCell id="wQs4QJUI-x7t0GBL8plU-5" value="..." style="rounded=1;whiteSpace=wrap;html=1;strokeWidth=1;fillWeight=4;hachureGap=8;hachureAngle=45;sketch=1;" vertex="1" parent="1">
          <mxGeometry x="103" y="257" width="84" height="29" as="geometry" />
        </mxCell>
        <mxCell id="wQs4QJUI-x7t0GBL8plU-15" style="edgeStyle=orthogonalEdgeStyle;rounded=1;orthogonalLoop=1;jettySize=auto;html=1;exitX=1;exitY=0.5;exitDx=0;exitDy=0;entryX=0;entryY=0.5;entryDx=0;entryDy=0;endArrow=classicThin;endFill=1;curved=0;" edge="1" parent="1" source="wQs4QJUI-x7t0GBL8plU-6" target="wQs4QJUI-x7t0GBL8plU-9">
          <mxGeometry relative="1" as="geometry" />
        </mxCell>
        <mxCell id="wQs4QJUI-x7t0GBL8plU-6" value="10" style="rounded=1;whiteSpace=wrap;html=1;strokeWidth=1;fillWeight=4;hachureGap=8;hachureAngle=45;sketch=1;fillColor=#dae8fc;strokeColor=#6c8ebf;fillStyle=solid;" vertex="1" parent="1">
          <mxGeometry x="103" y="286" width="85" height="29" as="geometry" />
        </mxCell>
        <mxCell id="wQs4QJUI-x7t0GBL8plU-7" value="..." style="rounded=1;whiteSpace=wrap;html=1;strokeWidth=1;fillWeight=4;hachureGap=8;hachureAngle=45;sketch=1;" vertex="1" parent="1">
          <mxGeometry x="103" y="315" width="84" height="29" as="geometry" />
        </mxCell>
        <mxCell id="wQs4QJUI-x7t0GBL8plU-8" value="进程的&lt;div&gt;文件描述符数组&lt;/div&gt;" style="text;html=1;align=center;verticalAlign=middle;whiteSpace=wrap;rounded=0;" vertex="1" parent="1">
          <mxGeometry x="94" y="102" width="102" height="29" as="geometry" />
        </mxCell>
        <mxCell id="wQs4QJUI-x7t0GBL8plU-23" style="edgeStyle=orthogonalEdgeStyle;rounded=0;orthogonalLoop=1;jettySize=auto;html=1;entryX=0;entryY=0.5;entryDx=0;entryDy=0;" edge="1" parent="1" source="wQs4QJUI-x7t0GBL8plU-9" target="wQs4QJUI-x7t0GBL8plU-17">
          <mxGeometry relative="1" as="geometry" />
        </mxCell>
        <mxCell id="wQs4QJUI-x7t0GBL8plU-9" value="" style="rounded=1;whiteSpace=wrap;html=1;strokeWidth=1;fillWeight=4;hachureGap=8;hachureAngle=45;sketch=1;fillStyle=solid;" vertex="1" parent="1">
          <mxGeometry x="246" y="274" width="129" height="54" as="geometry" />
        </mxCell>
        <mxCell id="wQs4QJUI-x7t0GBL8plU-10" value="&lt;font style=&quot;font-size: 14px;&quot; face=&quot;Comic Sans MS&quot;&gt;struct file&lt;/font&gt;" style="text;html=1;align=center;verticalAlign=middle;whiteSpace=wrap;rounded=0;" vertex="1" parent="1">
          <mxGeometry x="257.25" y="236" width="102" height="29" as="geometry" />
        </mxCell>
        <mxCell id="wQs4QJUI-x7t0GBL8plU-12" value="&lt;font face=&quot;Comic Sans MS&quot;&gt;void *private_data&lt;/font&gt;" style="rounded=1;whiteSpace=wrap;html=1;strokeWidth=1;fillWeight=4;hachureGap=8;hachureAngle=45;sketch=1;fillColor=#dae8fc;strokeColor=#6c8ebf;fillStyle=solid;" vertex="1" parent="1">
          <mxGeometry x="252.88" y="288.5" width="115.25" height="25" as="geometry" />
        </mxCell>
        <mxCell id="wQs4QJUI-x7t0GBL8plU-17" value="" style="rounded=1;whiteSpace=wrap;html=1;strokeWidth=1;fillWeight=4;hachureGap=8;hachureAngle=45;sketch=1;fillStyle=solid;" vertex="1" parent="1">
          <mxGeometry x="427.25" y="251.75" width="179.75" height="99.25" as="geometry" />
        </mxCell>
        <mxCell id="wQs4QJUI-x7t0GBL8plU-18" value="&lt;font style=&quot;font-size: 14px;&quot; face=&quot;Comic Sans MS&quot;&gt;struct eventpoll&lt;/font&gt;" style="text;html=1;align=center;verticalAlign=middle;whiteSpace=wrap;rounded=0;" vertex="1" parent="1">
          <mxGeometry x="430" y="219" width="165.75" height="26" as="geometry" />
        </mxCell>
        <mxCell id="wQs4QJUI-x7t0GBL8plU-19" value="&lt;font face=&quot;Comic Sans MS&quot;&gt;struct rb_root rbr;&lt;/font&gt;" style="rounded=1;whiteSpace=wrap;html=1;strokeWidth=1;fillWeight=4;hachureGap=8;hachureAngle=45;sketch=1;fillColor=#dae8fc;strokeColor=#6c8ebf;fillStyle=solid;" vertex="1" parent="1">
          <mxGeometry x="442.75" y="313" width="147.25" height="26" as="geometry" />
        </mxCell>
        <mxCell id="wQs4QJUI-x7t0GBL8plU-20" value="&lt;font face=&quot;Comic Sans MS&quot;&gt;struct list_head rdllist;&lt;/font&gt;" style="rounded=1;whiteSpace=wrap;html=1;strokeWidth=1;fillWeight=4;hachureGap=8;hachureAngle=45;sketch=1;fillColor=#dae8fc;strokeColor=#6c8ebf;fillStyle=solid;" vertex="1" parent="1">
          <mxGeometry x="442.75" y="287" width="145.25" height="24" as="geometry" />
        </mxCell>
        <mxCell id="wQs4QJUI-x7t0GBL8plU-21" value="&lt;font face=&quot;Comic Sans MS&quot;&gt;wait_queue_head_t wq;&lt;/font&gt;" style="rounded=1;whiteSpace=wrap;html=1;strokeWidth=1;fillWeight=4;hachureGap=8;hachureAngle=45;sketch=1;fillColor=#dae8fc;strokeColor=#6c8ebf;fillStyle=solid;" vertex="1" parent="1">
          <mxGeometry x="442.75" y="262" width="145.25" height="25" as="geometry" />
        </mxCell>
      </root>
    </mxGraphModel>
  </diagram>
</mxfile>
